<?xml version="1.0" ?><!DOCTYPE svg  PUBLIC '-//W3C//DTD SVG 1.1//EN'  'http://www.w3.org/Graphics/SVG/1.1/DTD/svg11.dtd'><svg height="512px" style="enable-background:new 0 0 512 512;" version="1.1" viewBox="0 0 512 512" width="512px" xml:space="preserve" xmlns="http://www.w3.org/2000/svg" xmlns:xlink="http://www.w3.org/1999/xlink"><g id="_x31_61_x2C__Twitter_x2C__Lock_x2C__Locked"><g><g><g><path d="M360,228.999H160c-5.523,0-10-4.477-10-10v-30c0-60.654,49.346-110,110-110      c29.393,0,57.017,11.443,77.783,32.221C358.557,131.982,370,159.606,370,188.999v30C370,224.521,365.522,228.999,360,228.999z       M170,208.999h180v-20c0-24.048-9.361-46.648-26.359-63.637C306.648,108.36,284.049,98.999,260,98.999      c-49.626,0-90,40.374-90,90V208.999z" style="fill:#707487;"/></g></g><polygon points="360,199 160,199 110,199 110,429 410,429 410,199   " style="fill:#D7DEED;"/><g><circle cx="260" cy="308.998" r="30" style="fill:#707487;"/></g><g><path d="M260,378.998c-5.523,0-10-4.477-10-10v-30c0-5.521,4.477-10,10-10c5.522,0,10,4.479,10,10v30     C270,374.521,265.522,378.998,260,378.998z" style="fill:#707487;"/></g></g></g><g id="Layer_1"/></svg>